PathFileType	4	(X/Y/Z)	Patient5_TMGait_0pt45_1_left_08.trc.trc
DataRate	CameraRate	NumFrames	NumMarkers	Units	OrigDataRate	OrigDataStartFrame	OrigNumFrames
57.851239669421	57.851239669421	5	32	mm	57.851239669421	106	       141
Frame#	Time	R.ASIS			L.ASIS			Chest			R.Shoulder			Neck			L.Shoulder			L.Elbow			L.Wrist			R.Elbow			R.Wrist			L.Thigh.Superior			L.Thigh.Lateral			L.Thigh.Inferior			L.Patella			L.Shank.Superior			L.Shank.Lateral			L.Shank.Inferior			L.Heel			L.Midfoot.Lateral			L.Midfoot.Superior			L.Toe			R.Thigh.Superior			R.Thigh.Lateral			R.Thigh.Inferior			R.Patella			R.Shank.Superior			R.Shank.Lateral			R.Shank.Inferior			R.Heel			R.Midfoot.Lateral			R.Midfoot.Superior			R.Toe			
		X1	Y1	Z1	X2	Y2	Z2	X3	Y3	Z3	X4	Y4	Z4	X5	Y5	Z5	X6	Y6	Z6	X7	Y7	Z7	X8	Y8	Z8	X9	Y9	Z9	X10	Y10	Z10	X11	Y11	Z11	X12	Y12	Z12	X13	Y13	Z13	X14	Y14	Z14	X15	Y15	Z15	X16	Y16	Z16	X17	Y17	Z17	X18	Y18	Z18	X19	Y19	Z19	X20	Y20	Z20	X21	Y21	Z21	X22	Y22	Z22	X23	Y23	Z23	X24	Y24	Z24	X25	Y25	Z25	X26	Y26	Z26	X27	Y27	Z27	X28	Y28	Z28	X29	Y29	Z29	X30	Y30	Z30	X31	Y31	Z31	X32	Y32	Z32	

106	13.565000000000	1057.091608280938	969.212084529539	584.383917307045	1005.483482348279	956.451003354951	350.185386288438	1098.652945687311	1427.295251112628	479.118015359649	1033.133657792126	1482.011831805588	664.715907893468	973.443241875607	1550.983738071850	491.012300196828	996.583303552850	1504.509236429519	301.441708875681	863.004663592565	1202.622615178908	184.486484454835	946.185445396860	926.375798265241	154.563138829834	988.243557736782	1164.790498873434	821.656159147120	1189.422123914753	982.421615669362	719.501727189146	1072.057870305047	761.028091460855	311.611296391113	1015.805850629612	679.634316249694	269.525550289285	1113.414665266621	637.769129409688	311.784716440433	1127.310160755289	487.534527400984	300.086164508660	1022.398682466640	409.293670616594	329.732111955378	922.115075892782	404.201905522050	259.079942199841	916.452751305476	342.010088954485	346.682290670794	661.544584052371	272.500226916031	352.732986295805	702.236330871310	182.987949356183	302.020601046744	816.613822188487	158.423235100993	342.219047971160	857.054044160437	55.024048281629	359.346082541639	1053.801510296956	733.104398953870	594.483561753825	964.885500545076	658.232112028042	651.498869616272	1031.656731807507	605.702238316004	566.178211577973	1027.408062423630	510.090697917359	588.519256914392	982.068068760305	418.040545105331	548.891692883605	920.070870219058	344.559990110694	630.761160646700	969.801260031498	280.133468089892	539.509458337713	852.731128984467	52.517945428945	492.894896266014	928.948314677211	24.745965641628	568.562819314684	1035.610381571386	87.540207331929	545.980606922034	1139.505652318495	43.684189201038	549.912995465015	
107	13.582285714286	1055.361466537412	968.422409414952	587.151485396892	1004.764936938437	957.402167757166	352.227466744711	1099.966217268367	1426.800403848738	479.899647805487	1036.239706836774	1481.358857596749	665.997113703742	975.324059335595	1550.909152226435	492.915207258332	996.674157589388	1504.899525862908	303.288005217881	862.340676290922	1202.559513330920	187.690390787900	946.358843371673	926.582340609295	157.986495361126	993.579813412503	1164.556648493518	824.099750034529	1194.268032062754	981.098893432867	722.765354276172	1076.181721598123	766.788084152178	315.206902818331	1023.658678178104	683.928041811965	271.796468534652	1122.212668549134	645.468890438551	315.490301210663	1140.962787534128	494.866618862095	303.164366118049	1036.927126914698	414.417832411060	332.067651048870	937.006356487951	408.064804388501	261.119753021716	931.725204831265	345.753327998538	348.626356908825	677.447332853554	269.824539526230	354.260535511648	721.882874367492	183.892717887552	301.362746909489	836.609883887003	162.664616456613	341.996310996320	880.846960890067	59.946925143676	356.363444237241	1049.475986459456	732.049183803541	596.031067777026	959.488861324720	658.174983901107	652.805933661652	1025.677075344124	604.914688719689	567.539902027827	1020.335110695317	509.505762651497	589.656592617138	974.629158774593	418.282358905917	549.867829289917	912.415080043178	344.965243835595	631.588162873521	962.185142037538	280.423589587534	540.318952775053	844.748517398051	52.741213593633	493.258481863825	921.067206768650	24.744036345525	568.717466059577	1027.719814365886	87.551885642438	546.163639373120	1131.607310684980	43.750806834286	549.964752274514	
108	13.599571428571	1053.279954511878	967.596747187617	589.671527883043	1004.160432972497	958.532906498818	354.146608941492	1101.373277256626	1426.409039184242	480.612137383311	1039.241319754408	1481.081707022762	667.002529818313	977.297026841335	1551.018047654289	494.421303119440	997.296121907152	1505.312158655306	304.789062457615	862.005228035994	1202.778988062533	190.250876555815	946.936468097856	927.074710761610	161.094657832461	998.306440682859	1164.732965289413	826.162143160768	1198.712923232179	980.571822750692	725.374248069904	1079.641572188096	772.495823019279	318.848327641723	1030.620087585310	688.436325643582	274.146277087739	1129.741642938761	653.085412928826	319.414467251354	1153.329787818955	502.548498747741	306.540277374607	1051.029152559544	419.263328254595	334.683198314784	951.425654089351	410.649536425338	263.604879175134	947.406907971147	347.963478497351	350.831153807429	694.912679091789	262.128284483756	356.282749416747	744.054615381404	180.843362840481	300.943540888946	859.327895617888	164.610805508719	341.691744516658	908.912427208032	64.245636755945	353.004996863587	1045.563993464557	731.201905519287	597.821260277760	954.644036959313	658.096809773470	653.955194940494	1020.737135706537	604.215236483500	569.033019103293	1014.406745190807	508.923813869465	590.937826962630	968.356056727229	418.357046478709	550.842383074579	905.432282929806	345.326065961418	632.251053702107	955.195625238190	280.533411804559	541.110290196680	836.764391784609	52.960148143584	493.594920402642	913.203903070284	24.755021107529	568.861369982556	1019.860647998872	87.557152871407	546.367603462367	1123.732375383262	43.813337710384	550.016481821722	
109	13.616857142857	1051.026761741521	966.778799010213	591.821525309981	1003.606064692150	959.713234760863	355.846126205092	1102.881336358095	1426.032636510182	481.351102889757	1042.071865913750	1481.120254476015	667.817638339224	979.348188120586	1551.228435626019	495.575009202721	998.521197936467	1505.614069920118	305.982505365988	862.072712109812	1203.178023639712	192.151566404415	947.860116502117	927.714481441616	163.814522668520	1002.391856392721	1165.227903284632	827.901667866175	1202.750621997815	980.848258343631	727.293622119401	1082.413935505611	777.894014942706	322.319756399250	1036.658526874414	692.866556487739	276.400225893138	1136.015785922024	660.302421028023	323.362569396400	1164.423460841834	510.307155785095	310.089856488693	1064.750706912970	423.641879642551	337.454107943099	965.505638261132	411.759713856249	266.373439028760	963.626263549270	348.535890771711	353.164012026603	714.387758674936	249.979226032267	358.654408298310	768.648963372481	174.203875096104	300.746365569125	884.520392289920	164.251688788044	341.263403543311	940.508170488771	67.560977108125	349.328582847712	1042.048864451366	730.506762865325	599.640241521088	950.298517356089	658.003693876822	654.875304081860	1016.595331663657	603.539748363153	570.474677984029	1009.367223831629	508.339568580644	592.189506979150	962.973329846539	418.284480532897	551.712601607821	899.003651919731	345.641809658850	632.716215553621	948.697138204979	280.488963812170	541.807637679820	828.791638828303	53.149351292459	493.868080119480	905.357799334946	24.776845023766	568.986432026639	1012.029196825120	87.557432157070	546.576500744653	1115.884122728455	43.869321976217	550.063184724804	
110	13.634142857143	1048.755660376222	965.982682905661	593.548844700136	1003.081181368098	960.817274398914	357.250421882730	1104.473215069355	1425.606182645367	482.171568558944	1044.646307955289	1481.383606455814	668.515014065117	981.445312401424	1551.454230030329	496.428331654629	1000.325314293249	1505.701466858341	306.912003650219	862.633498105439	1203.612637795263	193.418535477407	949.079682457949	928.318834125294	166.082290255124	1005.843978533785	1165.907638212841	829.356298099471	1206.397783504752	981.830871588039	728.541487637566	1084.504376137264	782.737624936756	325.489941434541	1041.782124058509	696.950313525935	278.419756955824	1141.067224201562	666.827008881246	327.201644973451	1174.229338410298	517.862703939406	313.673645532368	1078.098970310463	427.430109757434	340.240254218160	979.343858958080	411.322585297537	269.267897868324	980.482545163556	347.512104814611	355.495003106297	736.286108537467	234.121117345987	361.241095873174	795.598390632138	164.499364690385	300.762405346814	911.945395129158	161.787473028560	340.695762510507	974.903675853598	69.796160485109	345.431769989893	1038.821473512436	729.883970599531	601.285138136582	946.308331595209	657.897428830129	655.531227585754	1012.902274465422	602.839803284722	571.718357316419	1004.860178153995	507.749485151415	593.274381880269	958.101310758389	418.106349159445	552.407656568873	892.924590866043	345.920319537247	632.981040894996	942.491995080661	280.339078947546	542.363100768074	820.843143664238	53.293353571953	494.057634235909	897.522986128372	24.806211478132	569.086666722323	1004.212509605114	87.556216624293	546.780283489166	1108.056622719608	43.919258539486	550.103445571445	
